paper_minjerk_fatigue_30cycles
version=1
nRows=176
nColumns=3
inDegrees=yes
endheader
time	r_shoulder_elev	r_elbow_flex
92.5000	20.000000	41.697724
92.5100	20.000000	42.515278
92.5200	20.000000	43.195147
92.5300	20.000000	43.709406
92.5400	20.000000	44.059355
92.5500	20.000000	44.272578
92.5600	20.000000	44.404426
92.5700	20.000000	44.538920
92.5800	20.000000	44.780100
92.5900	20.000000	45.228175
92.6000	20.000000	45.944268
92.6100	20.000000	46.917670
92.6200	20.000000	48.053580
92.6300	20.000000	49.193453
92.6400	20.000000	50.165861
92.6500	20.000000	50.849838
92.6600	20.000000	51.223606
92.6700	20.000000	51.375147
92.6800	20.000000	51.467007
92.6900	20.000000	51.668899
92.7000	20.000000	52.087851
92.7100	20.000000	52.728144
92.7200	20.000000	53.499968
92.7300	20.000000	54.272477
92.7400	20.000000	54.944856
92.7500	20.000000	55.499551
92.7600	20.000000	56.010063
92.7700	20.000000	56.598376
92.7800	20.000000	57.363017
92.7900	20.000000	58.314876
92.8000	20.000000	59.355559
92.8100	20.000000	60.312668
92.8200	20.000000	61.017671
92.8300	20.000000	61.389372
92.8400	20.000000	61.481148
92.8500	20.000000	61.466358
92.8600	20.000000	61.566186
92.8700	20.000000	61.953006
92.8800	20.000000	62.675604
92.8900	20.000000	63.642890
92.9000	20.000000	64.674396
92.9100	20.000000	65.592511
92.9200	20.000000	66.309941
92.9300	20.000000	66.867460
92.9400	20.000000	67.401755
92.9500	20.000000	68.059063
92.9600	20.000000	68.899530
92.9700	20.000000	69.844390
92.9800	20.000000	70.698574
92.9900	20.000000	71.243763
93.0000	20.000000	71.359449
93.0100	20.000000	71.111308
93.0200	20.000000	70.757353
93.0300	20.000000	70.659201
93.0400	20.000000	71.131455
93.0500	20.000000	72.294944
93.0600	20.000000	74.002657
93.0700	20.000000	75.877842
93.0800	20.000000	77.454300
93.0900	20.000000	78.362017
93.1000	20.000000	78.478720
93.1100	20.000000	77.981030
93.1200	20.000000	77.272012
93.1300	20.000000	76.816031
93.1400	20.000000	76.952157
93.1500	20.000000	77.765832
93.1600	20.000000	79.071416
93.1700	20.000000	80.508388
93.1800	20.000000	81.704316
93.1900	20.000000	82.430536
93.2000	20.000000	82.683486
93.2100	20.000000	82.661309
93.2200	20.000000	82.653854
93.2300	20.000000	82.901918
93.2400	20.000000	83.491804
93.2500	20.000000	84.330639
93.2600	20.000000	85.207599
93.2700	20.000000	85.906011
93.2800	20.000000	86.309883
93.2900	20.000000	86.454751
93.3000	20.000000	86.502249
93.3100	20.000000	86.655226
93.3200	20.000000	87.057418
93.3300	20.000000	87.726392
93.3400	20.000000	88.549758
93.3500	20.000000	89.342921
93.3600	20.000000	89.937699
93.3700	20.000000	90.258596
93.3800	20.000000	90.352240
93.3900	20.000000	90.359784
93.4000	20.000000	90.449296
93.4100	20.000000	90.742047
93.4200	20.000000	91.266173
93.4300	20.000000	91.955038
93.4400	20.000000	92.685193
93.4500	20.000000	93.331517
93.4600	20.000000	93.812722
93.4700	20.000000	94.109594
93.4800	20.000000	94.254657
93.4900	20.000000	94.306106
93.5000	20.000000	94.323675
93.5100	20.000000	94.358162
93.5200	20.000000	94.454417
93.5300	20.000000	94.657506
93.5400	20.000000	95.009778
93.5500	20.000000	95.533826
93.5600	20.000000	96.208261
93.5700	20.000000	96.952165
93.5800	20.000000	97.633808
93.5900	20.000000	98.108576
93.6000	20.000000	98.275044
93.6100	20.000000	98.125323
93.6200	20.000000	97.763931
93.6300	20.000000	97.380897
93.6400	20.000000	97.185045
93.6500	20.000000	97.322957
93.6600	20.000000	97.818117
93.6700	20.000000	98.557984
93.6800	20.000000	99.336656
93.6900	20.000000	99.936360
93.7000	20.000000	100.213557
93.7100	20.000000	100.153297
93.7200	20.000000	99.869563
93.7300	20.000000	99.553232
93.7400	20.000000	99.391726
93.7500	20.000000	99.495368
93.7600	20.000000	99.860430
93.7700	20.000000	100.380886
93.7800	20.000000	100.899195
93.7900	20.000000	101.270928
93.8000	20.000000	101.415408
93.8100	20.000000	101.334495
93.8200	20.000000	101.098118
93.8300	20.000000	100.809526
93.8400	20.000000	100.568898
93.8500	20.000000	100.449562
93.8600	20.000000	100.490620
93.8700	20.000000	100.700054
93.8800	20.000000	101.058892
93.8900	20.000000	101.521017
93.9000	20.000000	102.011116
93.9100	20.000000	102.429229
93.9200	20.000000	102.669550
93.9300	20.000000	102.653244
93.9400	20.000000	102.364276
93.9500	20.000000	101.870510
93.9600	20.000000	101.314750
93.9700	20.000000	100.872453
93.9800	20.000000	100.689282
93.9900	20.000000	100.824003
94.0000	20.000000	101.223169
94.0100	20.000000	101.741679
94.0200	20.000000	102.202613
94.0300	20.000000	102.470622
94.0400	20.000000	102.505377
94.0500	20.000000	102.369974
94.0600	20.000000	102.190370
94.0700	20.000000	102.085930
94.0800	20.000000	102.105932
94.0900	20.000000	102.204572
94.1000	20.000000	102.268094
94.1100	20.000000	102.181063
94.1200	20.000000	101.897906
94.1300	20.000000	101.482019
94.1400	20.000000	101.089285
94.1500	20.000000	100.900621
94.1600	20.000000	101.034860
94.1700	20.000000	101.484918
94.1800	20.000000	102.110581
94.1900	20.000000	102.694351
94.2000	20.000000	103.035568
94.2100	20.000000	103.038158
94.2200	20.000000	102.749294
94.2300	20.000000	102.329715
94.2400	20.000000	101.970253
94.2500	20.000000	101.796465
